<mxfile host="app.diagrams.net" agent="Mozilla/5.0 (Windows NT 10.0; Win64; x64) AppleWebKit/537.36 (KHTML, like Gecko) Chrome/137.0.0.0 Safari/537.36" version="27.1.6">
  <diagram name="tensor-name" id="b75gfLSRsv0xJG8iASqN">
    <mxGraphModel dx="2492" dy="777" grid="1" gridSize="10" guides="1" tooltips="1" connect="1" arrows="1" fold="1" page="1" pageScale="1" pageWidth="827" pageHeight="1169" math="0" shadow="0">
      <root>
        <mxCell id="0" />
        <mxCell id="1" parent="0" />
        <mxCell id="r-hDFKjL-ryOG50zSRNX-1" value="onnx_op" style="rounded=0;whiteSpace=wrap;html=1;" vertex="1" parent="1">
          <mxGeometry x="220" y="130" width="230" height="60" as="geometry" />
        </mxCell>
        <mxCell id="r-hDFKjL-ryOG50zSRNX-6" style="edgeStyle=orthogonalEdgeStyle;rounded=0;orthogonalLoop=1;jettySize=auto;html=1;exitX=1;exitY=0.5;exitDx=0;exitDy=0;entryX=0;entryY=0.5;entryDx=0;entryDy=0;" edge="1" parent="1" source="r-hDFKjL-ryOG50zSRNX-2" target="r-hDFKjL-ryOG50zSRNX-3">
          <mxGeometry relative="1" as="geometry" />
        </mxCell>
        <mxCell id="r-hDFKjL-ryOG50zSRNX-2" value="relay_op_1" style="rounded=0;whiteSpace=wrap;html=1;" vertex="1" parent="1">
          <mxGeometry x="390" y="410" width="110" height="60" as="geometry" />
        </mxCell>
        <mxCell id="r-hDFKjL-ryOG50zSRNX-11" style="edgeStyle=orthogonalEdgeStyle;rounded=0;orthogonalLoop=1;jettySize=auto;html=1;exitX=1;exitY=0.5;exitDx=0;exitDy=0;" edge="1" parent="1" source="r-hDFKjL-ryOG50zSRNX-3">
          <mxGeometry relative="1" as="geometry">
            <mxPoint x="810" y="440" as="targetPoint" />
          </mxGeometry>
        </mxCell>
        <mxCell id="r-hDFKjL-ryOG50zSRNX-3" value="onnx_op" style="rounded=0;whiteSpace=wrap;html=1;" vertex="1" parent="1">
          <mxGeometry x="590" y="410" width="110" height="60" as="geometry" />
        </mxCell>
        <mxCell id="r-hDFKjL-ryOG50zSRNX-5" style="edgeStyle=orthogonalEdgeStyle;rounded=0;orthogonalLoop=1;jettySize=auto;html=1;exitX=1;exitY=0.5;exitDx=0;exitDy=0;entryX=0;entryY=0.5;entryDx=0;entryDy=0;" edge="1" parent="1" source="r-hDFKjL-ryOG50zSRNX-4" target="r-hDFKjL-ryOG50zSRNX-2">
          <mxGeometry relative="1" as="geometry" />
        </mxCell>
        <mxCell id="r-hDFKjL-ryOG50zSRNX-4" value="relay_op_2" style="rounded=0;whiteSpace=wrap;html=1;" vertex="1" parent="1">
          <mxGeometry x="190" y="410" width="110" height="60" as="geometry" />
        </mxCell>
        <mxCell id="r-hDFKjL-ryOG50zSRNX-7" value="relay_op_n" style="rounded=0;whiteSpace=wrap;html=1;" vertex="1" parent="1">
          <mxGeometry x="-80" y="410" width="110" height="60" as="geometry" />
        </mxCell>
        <mxCell id="r-hDFKjL-ryOG50zSRNX-8" style="edgeStyle=orthogonalEdgeStyle;rounded=0;orthogonalLoop=1;jettySize=auto;html=1;exitX=1;exitY=0.5;exitDx=0;exitDy=0;entryX=0;entryY=0.5;entryDx=0;entryDy=0;" edge="1" parent="1">
          <mxGeometry relative="1" as="geometry">
            <mxPoint x="30" y="439.5" as="sourcePoint" />
            <mxPoint x="120" y="439.5" as="targetPoint" />
          </mxGeometry>
        </mxCell>
        <mxCell id="r-hDFKjL-ryOG50zSRNX-9" value="xxx_output" style="text;html=1;align=center;verticalAlign=middle;resizable=0;points=[];autosize=1;strokeColor=none;fillColor=none;" vertex="1" parent="1">
          <mxGeometry x="455" y="130" width="80" height="30" as="geometry" />
        </mxCell>
        <mxCell id="r-hDFKjL-ryOG50zSRNX-10" style="edgeStyle=orthogonalEdgeStyle;rounded=0;orthogonalLoop=1;jettySize=auto;html=1;exitX=1;exitY=0.5;exitDx=0;exitDy=0;entryX=0;entryY=0.5;entryDx=0;entryDy=0;" edge="1" parent="1" source="r-hDFKjL-ryOG50zSRNX-1">
          <mxGeometry relative="1" as="geometry">
            <mxPoint x="460" y="159.5" as="sourcePoint" />
            <mxPoint x="550" y="159.5" as="targetPoint" />
          </mxGeometry>
        </mxCell>
        <mxCell id="r-hDFKjL-ryOG50zSRNX-12" value="xxx_output" style="text;html=1;align=center;verticalAlign=middle;resizable=0;points=[];autosize=1;strokeColor=none;fillColor=none;" vertex="1" parent="1">
          <mxGeometry x="700" y="410" width="80" height="30" as="geometry" />
        </mxCell>
        <mxCell id="r-hDFKjL-ryOG50zSRNX-13" value="xxx_output_im_1" style="text;html=1;align=center;verticalAlign=middle;resizable=0;points=[];autosize=1;strokeColor=none;fillColor=none;" vertex="1" parent="1">
          <mxGeometry x="490" y="411" width="110" height="30" as="geometry" />
        </mxCell>
        <mxCell id="r-hDFKjL-ryOG50zSRNX-14" value="xxx_output_im_2" style="text;html=1;align=center;verticalAlign=middle;resizable=0;points=[];autosize=1;strokeColor=none;fillColor=none;" vertex="1" parent="1">
          <mxGeometry x="290" y="414" width="110" height="30" as="geometry" />
        </mxCell>
        <mxCell id="r-hDFKjL-ryOG50zSRNX-15" value="xxx_output_im_n" style="text;html=1;align=center;verticalAlign=middle;resizable=0;points=[];autosize=1;strokeColor=none;fillColor=none;" vertex="1" parent="1">
          <mxGeometry x="20" y="414" width="110" height="30" as="geometry" />
        </mxCell>
        <mxCell id="r-hDFKjL-ryOG50zSRNX-16" value="" style="shape=flexArrow;endArrow=classic;html=1;rounded=0;" edge="1" parent="1">
          <mxGeometry width="50" height="50" relative="1" as="geometry">
            <mxPoint x="330" y="200" as="sourcePoint" />
            <mxPoint x="330" y="390" as="targetPoint" />
          </mxGeometry>
        </mxCell>
        <mxCell id="r-hDFKjL-ryOG50zSRNX-18" value="onnx_split" style="rounded=0;whiteSpace=wrap;html=1;" vertex="1" parent="1">
          <mxGeometry x="200" y="711" width="230" height="60" as="geometry" />
        </mxCell>
        <mxCell id="r-hDFKjL-ryOG50zSRNX-19" style="edgeStyle=orthogonalEdgeStyle;rounded=0;orthogonalLoop=1;jettySize=auto;html=1;exitX=1;exitY=0.5;exitDx=0;exitDy=0;entryX=0;entryY=0.5;entryDx=0;entryDy=0;" edge="1" parent="1" source="r-hDFKjL-ryOG50zSRNX-20" target="r-hDFKjL-ryOG50zSRNX-34">
          <mxGeometry relative="1" as="geometry">
            <mxPoint x="570" y="1080" as="targetPoint" />
            <Array as="points">
              <mxPoint x="670" y="1080" />
              <mxPoint x="670" y="1015" />
            </Array>
          </mxGeometry>
        </mxCell>
        <mxCell id="r-hDFKjL-ryOG50zSRNX-40" style="edgeStyle=orthogonalEdgeStyle;rounded=0;orthogonalLoop=1;jettySize=auto;html=1;exitX=1;exitY=0.5;exitDx=0;exitDy=0;entryX=0;entryY=0.5;entryDx=0;entryDy=0;" edge="1" parent="1" source="r-hDFKjL-ryOG50zSRNX-20" target="r-hDFKjL-ryOG50zSRNX-38">
          <mxGeometry relative="1" as="geometry">
            <Array as="points">
              <mxPoint x="670" y="1080" />
              <mxPoint x="670" y="1150" />
            </Array>
          </mxGeometry>
        </mxCell>
        <mxCell id="r-hDFKjL-ryOG50zSRNX-20" value="relay_tuple" style="rounded=0;whiteSpace=wrap;html=1;" vertex="1" parent="1">
          <mxGeometry x="370" y="1050" width="110" height="60" as="geometry" />
        </mxCell>
        <mxCell id="r-hDFKjL-ryOG50zSRNX-23" style="edgeStyle=orthogonalEdgeStyle;rounded=0;orthogonalLoop=1;jettySize=auto;html=1;exitX=1;exitY=0.5;exitDx=0;exitDy=0;entryX=0;entryY=0.5;entryDx=0;entryDy=0;" edge="1" parent="1" source="r-hDFKjL-ryOG50zSRNX-24" target="r-hDFKjL-ryOG50zSRNX-20">
          <mxGeometry relative="1" as="geometry" />
        </mxCell>
        <mxCell id="r-hDFKjL-ryOG50zSRNX-24" value="relay_strided_slice" style="rounded=0;whiteSpace=wrap;html=1;" vertex="1" parent="1">
          <mxGeometry x="30" y="985" width="110" height="60" as="geometry" />
        </mxCell>
        <mxCell id="r-hDFKjL-ryOG50zSRNX-27" value="xxx_output_0&lt;div&gt;xxx_output_1&lt;/div&gt;" style="text;html=1;align=center;verticalAlign=middle;resizable=0;points=[];autosize=1;strokeColor=none;fillColor=none;" vertex="1" parent="1">
          <mxGeometry x="430" y="706" width="90" height="40" as="geometry" />
        </mxCell>
        <mxCell id="r-hDFKjL-ryOG50zSRNX-28" style="edgeStyle=orthogonalEdgeStyle;rounded=0;orthogonalLoop=1;jettySize=auto;html=1;exitX=1;exitY=0.5;exitDx=0;exitDy=0;entryX=0;entryY=0.5;entryDx=0;entryDy=0;" edge="1" parent="1" source="r-hDFKjL-ryOG50zSRNX-18">
          <mxGeometry relative="1" as="geometry">
            <mxPoint x="440" y="740.5" as="sourcePoint" />
            <mxPoint x="530" y="740.5" as="targetPoint" />
          </mxGeometry>
        </mxCell>
        <mxCell id="r-hDFKjL-ryOG50zSRNX-31" value="xxx_output_im_split_to_strided_slice_0" style="text;html=1;align=center;verticalAlign=middle;resizable=0;points=[];autosize=1;strokeColor=none;fillColor=none;" vertex="1" parent="1">
          <mxGeometry x="140" y="985" width="230" height="30" as="geometry" />
        </mxCell>
        <mxCell id="r-hDFKjL-ryOG50zSRNX-33" value="" style="shape=flexArrow;endArrow=classic;html=1;rounded=0;" edge="1" parent="1">
          <mxGeometry width="50" height="50" relative="1" as="geometry">
            <mxPoint x="310" y="781" as="sourcePoint" />
            <mxPoint x="310" y="971" as="targetPoint" />
          </mxGeometry>
        </mxCell>
        <mxCell id="r-hDFKjL-ryOG50zSRNX-35" style="edgeStyle=orthogonalEdgeStyle;rounded=0;orthogonalLoop=1;jettySize=auto;html=1;exitX=1;exitY=0.5;exitDx=0;exitDy=0;" edge="1" parent="1" source="r-hDFKjL-ryOG50zSRNX-34">
          <mxGeometry relative="1" as="geometry">
            <mxPoint x="929" y="1015" as="targetPoint" />
          </mxGeometry>
        </mxCell>
        <mxCell id="r-hDFKjL-ryOG50zSRNX-34" value="relay_GetTupleItem" style="rounded=0;whiteSpace=wrap;html=1;" vertex="1" parent="1">
          <mxGeometry x="719" y="985" width="110" height="60" as="geometry" />
        </mxCell>
        <mxCell id="r-hDFKjL-ryOG50zSRNX-36" value="xxx_output_0" style="text;html=1;align=center;verticalAlign=middle;resizable=0;points=[];autosize=1;strokeColor=none;fillColor=none;" vertex="1" parent="1">
          <mxGeometry x="829" y="985" width="90" height="30" as="geometry" />
        </mxCell>
        <mxCell id="r-hDFKjL-ryOG50zSRNX-37" style="edgeStyle=orthogonalEdgeStyle;rounded=0;orthogonalLoop=1;jettySize=auto;html=1;exitX=1;exitY=0.5;exitDx=0;exitDy=0;" edge="1" source="r-hDFKjL-ryOG50zSRNX-38" parent="1">
          <mxGeometry relative="1" as="geometry">
            <mxPoint x="929" y="1150" as="targetPoint" />
          </mxGeometry>
        </mxCell>
        <mxCell id="r-hDFKjL-ryOG50zSRNX-38" value="relay_GetTupleItem" style="rounded=0;whiteSpace=wrap;html=1;" vertex="1" parent="1">
          <mxGeometry x="719" y="1120" width="110" height="60" as="geometry" />
        </mxCell>
        <mxCell id="r-hDFKjL-ryOG50zSRNX-39" value="xxx_output_1" style="text;html=1;align=center;verticalAlign=middle;resizable=0;points=[];autosize=1;strokeColor=none;fillColor=none;" vertex="1" parent="1">
          <mxGeometry x="829" y="1120" width="90" height="30" as="geometry" />
        </mxCell>
        <mxCell id="r-hDFKjL-ryOG50zSRNX-41" value="xxx_output_0_im_tuple_output" style="text;html=1;align=center;verticalAlign=middle;resizable=0;points=[];autosize=1;strokeColor=none;fillColor=none;" vertex="1" parent="1">
          <mxGeometry x="470" y="1054" width="190" height="30" as="geometry" />
        </mxCell>
        <mxCell id="r-hDFKjL-ryOG50zSRNX-43" style="edgeStyle=orthogonalEdgeStyle;rounded=0;orthogonalLoop=1;jettySize=auto;html=1;exitX=1;exitY=0.5;exitDx=0;exitDy=0;entryX=0;entryY=0.5;entryDx=0;entryDy=0;" edge="1" parent="1" source="r-hDFKjL-ryOG50zSRNX-42" target="r-hDFKjL-ryOG50zSRNX-20">
          <mxGeometry relative="1" as="geometry" />
        </mxCell>
        <mxCell id="r-hDFKjL-ryOG50zSRNX-42" value="relay_strided_slice" style="rounded=0;whiteSpace=wrap;html=1;" vertex="1" parent="1">
          <mxGeometry x="30" y="1113" width="110" height="60" as="geometry" />
        </mxCell>
        <mxCell id="r-hDFKjL-ryOG50zSRNX-44" value="xxx_output_im_split_to_strided_slice_1" style="text;html=1;align=center;verticalAlign=middle;resizable=0;points=[];autosize=1;strokeColor=none;fillColor=none;" vertex="1" parent="1">
          <mxGeometry x="140" y="1110" width="230" height="30" as="geometry" />
        </mxCell>
        <mxCell id="r-hDFKjL-ryOG50zSRNX-45" style="edgeStyle=orthogonalEdgeStyle;rounded=0;orthogonalLoop=1;jettySize=auto;html=1;exitX=0.033;exitY=0.9;exitDx=0;exitDy=0;entryX=0;entryY=0.5;entryDx=0;entryDy=0;exitPerimeter=0;" edge="1" parent="1" source="r-hDFKjL-ryOG50zSRNX-46">
          <mxGeometry relative="1" as="geometry">
            <mxPoint x="120" y="160.5" as="sourcePoint" />
            <mxPoint x="220" y="160" as="targetPoint" />
          </mxGeometry>
        </mxCell>
        <mxCell id="r-hDFKjL-ryOG50zSRNX-46" value="xxx_input_0&lt;div&gt;xxx_input_1&lt;/div&gt;" style="text;html=1;align=center;verticalAlign=middle;resizable=0;points=[];autosize=1;strokeColor=none;fillColor=none;" vertex="1" parent="1">
          <mxGeometry x="95" y="125" width="90" height="40" as="geometry" />
        </mxCell>
        <mxCell id="r-hDFKjL-ryOG50zSRNX-47" value="xxx_input_0&lt;div&gt;xxx_input_1&lt;/div&gt;" style="text;html=1;align=center;verticalAlign=middle;resizable=0;points=[];autosize=1;strokeColor=none;fillColor=none;" vertex="1" parent="1">
          <mxGeometry x="-170" y="403" width="90" height="40" as="geometry" />
        </mxCell>
        <mxCell id="r-hDFKjL-ryOG50zSRNX-48" style="edgeStyle=orthogonalEdgeStyle;rounded=0;orthogonalLoop=1;jettySize=auto;html=1;exitX=1;exitY=0.5;exitDx=0;exitDy=0;entryX=0;entryY=0.5;entryDx=0;entryDy=0;" edge="1" parent="1">
          <mxGeometry relative="1" as="geometry">
            <mxPoint x="-180" y="439.5" as="sourcePoint" />
            <mxPoint x="-80" y="439" as="targetPoint" />
          </mxGeometry>
        </mxCell>
        <mxCell id="r-hDFKjL-ryOG50zSRNX-49" value="xxx_input" style="text;html=1;align=center;verticalAlign=middle;resizable=0;points=[];autosize=1;strokeColor=none;fillColor=none;" vertex="1" parent="1">
          <mxGeometry x="120" y="711" width="70" height="30" as="geometry" />
        </mxCell>
        <mxCell id="r-hDFKjL-ryOG50zSRNX-50" style="edgeStyle=orthogonalEdgeStyle;rounded=0;orthogonalLoop=1;jettySize=auto;html=1;exitX=1;exitY=0.5;exitDx=0;exitDy=0;entryX=0;entryY=0.5;entryDx=0;entryDy=0;" edge="1" parent="1">
          <mxGeometry relative="1" as="geometry">
            <mxPoint x="100" y="742.5" as="sourcePoint" />
            <mxPoint x="200" y="742" as="targetPoint" />
          </mxGeometry>
        </mxCell>
        <mxCell id="r-hDFKjL-ryOG50zSRNX-52" value="xxx_input" style="text;html=1;align=center;verticalAlign=middle;resizable=0;points=[];autosize=1;strokeColor=none;fillColor=none;" vertex="1" parent="1">
          <mxGeometry x="-150" y="1050" width="70" height="30" as="geometry" />
        </mxCell>
        <mxCell id="r-hDFKjL-ryOG50zSRNX-53" value="" style="rounded=0;whiteSpace=wrap;html=1;" vertex="1" parent="1">
          <mxGeometry x="-25" y="130" width="120" height="60" as="geometry" />
        </mxCell>
        <mxCell id="r-hDFKjL-ryOG50zSRNX-54" value="" style="rounded=0;whiteSpace=wrap;html=1;" vertex="1" parent="1">
          <mxGeometry x="-290" y="410" width="110" height="60" as="geometry" />
        </mxCell>
        <mxCell id="r-hDFKjL-ryOG50zSRNX-55" value="" style="rounded=0;whiteSpace=wrap;html=1;" vertex="1" parent="1">
          <mxGeometry x="-20" y="711" width="120" height="60" as="geometry" />
        </mxCell>
        <mxCell id="r-hDFKjL-ryOG50zSRNX-57" style="edgeStyle=orthogonalEdgeStyle;rounded=0;orthogonalLoop=1;jettySize=auto;html=1;exitX=1;exitY=0.5;exitDx=0;exitDy=0;entryX=0;entryY=0.5;entryDx=0;entryDy=0;" edge="1" parent="1" source="r-hDFKjL-ryOG50zSRNX-56" target="r-hDFKjL-ryOG50zSRNX-42">
          <mxGeometry relative="1" as="geometry" />
        </mxCell>
        <mxCell id="r-hDFKjL-ryOG50zSRNX-58" style="edgeStyle=orthogonalEdgeStyle;rounded=0;orthogonalLoop=1;jettySize=auto;html=1;exitX=1;exitY=0.5;exitDx=0;exitDy=0;entryX=0;entryY=0.5;entryDx=0;entryDy=0;" edge="1" parent="1" source="r-hDFKjL-ryOG50zSRNX-56" target="r-hDFKjL-ryOG50zSRNX-24">
          <mxGeometry relative="1" as="geometry" />
        </mxCell>
        <mxCell id="r-hDFKjL-ryOG50zSRNX-56" value="" style="rounded=0;whiteSpace=wrap;html=1;" vertex="1" parent="1">
          <mxGeometry x="-280" y="1053" width="120" height="60" as="geometry" />
        </mxCell>
      </root>
    </mxGraphModel>
  </diagram>
</mxfile>
